<svg width="139" height="128" viewBox="0 0 139 128" fill="none" xmlns="http://www.w3.org/2000/svg">
<path d="M31.4965 0C22.2084 0 15 14.0449 15 26.1226C15 31.9248 16.678 36.7061 19.845 39.9434C22.5392 42.6826 26.1316 44.2515 30.3385 44.4756V126.255C30.3385 126.927 30.8584 127.475 31.4965 127.475C32.1346 127.475 32.6546 126.927 32.6546 126.255V44.5005C36.8614 44.2515 40.4774 42.7075 43.1481 39.9683C46.315 36.731 47.9931 31.9497 47.9931 26.1475C48.0167 14.0449 40.8083 0 31.4965 0ZM41.541 38.2002C39.0594 40.7402 35.5852 42.085 31.4965 42.085C27.4078 42.085 23.9337 40.7402 21.4521 38.2002C18.7342 35.436 17.3161 31.2524 17.3161 26.1226C17.3161 12.999 25.0681 2.44043 31.4965 2.44043C39.3666 2.44043 45.7006 15.3896 45.7006 26.1226C45.7006 31.2524 44.2589 35.436 41.541 38.2002Z" fill="white"/>
<mask id="path-2-inside-1_57_2" fill="white">
<path d="M124 126.28V1.22021C124 0.547852 123.48 0 122.842 0C117.548 0 113.057 3.78516 111.899 9.23877L100.839 61.4341C100.082 64.9453 100.886 68.5811 103.037 71.395C105.164 74.209 108.354 75.8276 111.781 75.8276H114.546C115.185 75.8276 115.704 75.2798 115.704 74.6074C115.704 73.9351 115.185 73.3872 114.546 73.3872H111.781C109.063 73.3872 106.534 72.1172 104.856 69.876C103.155 67.6348 102.517 64.771 103.108 61.9819L114.168 9.76172C114.995 5.85205 117.997 3.01318 121.684 2.51514V126.28H124Z"/>
</mask>
<path d="M124 126.28V1.22021C124 0.547852 123.48 0 122.842 0C117.548 0 113.057 3.78516 111.899 9.23877L100.839 61.4341C100.082 64.9453 100.886 68.5811 103.037 71.395C105.164 74.209 108.354 75.8276 111.781 75.8276H114.546C115.185 75.8276 115.704 75.2798 115.704 74.6074C115.704 73.9351 115.185 73.3872 114.546 73.3872H111.781C109.063 73.3872 106.534 72.1172 104.856 69.876C103.155 67.6348 102.517 64.771 103.108 61.9819L114.168 9.76172C114.995 5.85205 117.997 3.01318 121.684 2.51514V126.28H124Z" fill="white"/>
<path d="M124 126.28V523.28H521V126.28H124ZM111.899 9.23877L-276.442 -73.2248L-276.459 -73.1434L-276.476 -73.0619L111.899 9.23877ZM100.839 61.4341L488.938 145.027L489.077 144.381L489.214 143.735L100.839 61.4341ZM103.037 71.395L419.738 -167.998L419.101 -168.841L418.46 -169.68L103.037 71.395ZM104.856 69.876L422.653 -168.061L421.853 -169.13L421.046 -170.192L104.856 69.876ZM103.108 61.9819L491.488 144.259L491.491 144.245L103.108 61.9819ZM114.168 9.76172L502.552 92.0248L502.561 91.9814L502.57 91.938L114.168 9.76172ZM121.684 2.51514H518.684V-451.72L68.5377 -390.911L121.684 2.51514ZM121.684 126.28H-275.316V523.28H121.684V126.28ZM521 126.28V1.22021H-273V126.28H521ZM521 1.22021C521 -198.898 362.038 -397 122.842 -397V397C-115.078 397 -273 199.993 -273 1.22021H521ZM122.842 -397C-83.4922 -397 -239.23 -248.464 -276.442 -73.2248L500.24 91.7024C465.345 256.034 318.588 397 122.842 397V-397ZM-276.476 -73.0619L-287.537 -20.8666L489.214 143.735L500.275 91.5394L-276.476 -73.0619ZM-287.261 -22.1591C-312.132 93.3096 -286.17 215.932 -212.386 312.471L418.46 -169.68C487.942 -78.7701 512.296 36.581 488.938 145.027L-287.261 -22.1591ZM-213.665 310.788C-139.189 409.315 -20.4648 472.828 111.781 472.828V-321.172C237.173 -321.172 349.516 -260.897 419.738 -167.998L-213.665 310.788ZM111.781 472.828H114.546V-321.172H111.781V472.828ZM114.546 472.828C353.742 472.828 512.704 274.726 512.704 74.6074H-281.296C-281.296 -124.166 -123.372 -321.172 114.546 -321.172V472.828ZM512.704 74.6074C512.704 -125.511 353.742 -323.613 114.546 -323.613V470.387C-123.372 470.387 -281.296 273.381 -281.296 74.6074H512.704ZM114.546 -323.613H111.781V470.387H114.546V-323.613ZM111.781 -323.613C236.604 -323.613 350.86 -263.951 422.653 -168.061L-212.94 307.813C-137.791 408.185 -18.4773 470.387 111.781 470.387V-323.613ZM421.046 -170.192C489.782 -79.6624 514.563 35.3376 491.488 144.259L-285.273 -20.2947C-309.529 94.2044 -283.472 214.932 -211.334 309.944L421.046 -170.192ZM491.491 144.245L502.552 92.0248L-274.215 -72.5014L-285.276 -20.2812L491.491 144.245ZM502.57 91.938C470.853 241.849 347.702 372.589 174.83 395.942L68.5377 -390.911C-111.708 -366.563 -240.862 -230.145 -274.234 -72.4146L502.57 91.938ZM-275.316 2.51514V126.28H518.684V2.51514H-275.316ZM121.684 523.28H124V-270.72H121.684V523.28Z" fill="white" mask="url(#path-2-inside-1_57_2)"/>
<path d="M90.5344 0.199219C89.8963 0.199219 89.3764 0.74707 89.3764 1.41943V25.4253C89.3764 33.6929 82.9952 40.4414 75.125 40.4414C67.2549 40.4414 60.8737 33.7178 60.8737 25.4253V1.41943C60.8737 0.74707 60.3538 0.199219 59.7157 0.199219C59.0776 0.199219 58.5576 0.74707 58.5576 1.41943V25.4253C58.5576 34.6641 65.4115 42.2593 74.0615 42.832C74.0142 42.9814 73.967 43.1309 73.967 43.3052V126.28C73.967 126.952 74.4869 127.5 75.125 127.5C75.7632 127.5 76.2831 126.952 76.2831 126.28V43.3052C76.2831 43.1309 76.2595 42.9814 76.1886 42.832C84.815 42.2593 91.6925 34.6641 91.6925 25.4253V1.41943C91.6925 0.74707 91.1725 0.199219 90.5344 0.199219Z" fill="white"/>
<path d="M69.9017 22.7607C70.5398 22.7607 71.0598 22.2129 71.0598 21.5405V1.41943C71.0598 0.74707 70.5398 0.199219 69.9017 0.199219C69.2636 0.199219 68.7437 0.74707 68.7437 1.41943V21.5405C68.7437 22.2129 69.2636 22.7607 69.9017 22.7607Z" fill="white"/>
<path d="M81.3641 22.7607C82.0022 22.7607 82.5222 22.2129 82.5222 21.5405V1.41943C82.5222 0.74707 82.0022 0.199219 81.3641 0.199219C80.726 0.199219 80.2061 0.74707 80.2061 1.41943V21.5405C80.2061 22.2129 80.726 22.7607 81.3641 22.7607Z" fill="white"/>
</svg>
